<mxfile host="app.diagrams.net" agent="Mozilla/5.0 (Windows NT 10.0; Win64; x64) AppleWebKit/537.36 (KHTML, like Gecko) Chrome/136.0.0.0 Safari/537.36" version="27.1.1">
  <diagram name="Seite-1" id="I7SXeuYZIde8KQidBwm0">
    <mxGraphModel dx="2579" dy="783" grid="1" gridSize="10" guides="1" tooltips="1" connect="1" arrows="1" fold="1" page="1" pageScale="1" pageWidth="1169" pageHeight="827" math="0" shadow="0">
      <root>
        <mxCell id="0" />
        <mxCell id="1" parent="0" />
        <mxCell id="APtOG8G-SrrY5QG8LEJ8-1" value="&lt;font style=&quot;font-size: 16px;&quot;&gt;&lt;b style=&quot;&quot;&gt;App&lt;/b&gt;&lt;/font&gt;" style="shape=umlFrame;whiteSpace=wrap;html=1;pointerEvents=0;strokeWidth=2;" vertex="1" parent="1">
          <mxGeometry x="-1000" y="20" width="610" height="405" as="geometry" />
        </mxCell>
        <mxCell id="APtOG8G-SrrY5QG8LEJ8-8" style="rounded=0;orthogonalLoop=1;jettySize=auto;html=1;entryX=0;entryY=0.5;entryDx=0;entryDy=0;exitX=1;exitY=0;exitDx=0;exitDy=0;strokeWidth=2;" edge="1" parent="1" source="APtOG8G-SrrY5QG8LEJ8-12" target="APtOG8G-SrrY5QG8LEJ8-5">
          <mxGeometry relative="1" as="geometry">
            <mxPoint x="-956.8" y="155" as="sourcePoint" />
          </mxGeometry>
        </mxCell>
        <mxCell id="APtOG8G-SrrY5QG8LEJ8-17" style="edgeStyle=orthogonalEdgeStyle;rounded=0;orthogonalLoop=1;jettySize=auto;html=1;entryX=0.5;entryY=0;entryDx=0;entryDy=0;strokeWidth=2;" edge="1" parent="1" source="APtOG8G-SrrY5QG8LEJ8-3" target="APtOG8G-SrrY5QG8LEJ8-9">
          <mxGeometry relative="1" as="geometry" />
        </mxCell>
        <mxCell id="APtOG8G-SrrY5QG8LEJ8-20" style="edgeStyle=orthogonalEdgeStyle;rounded=0;orthogonalLoop=1;jettySize=auto;html=1;entryX=0;entryY=0.5;entryDx=0;entryDy=0;strokeWidth=2;" edge="1" parent="1" source="APtOG8G-SrrY5QG8LEJ8-3" target="APtOG8G-SrrY5QG8LEJ8-11">
          <mxGeometry relative="1" as="geometry" />
        </mxCell>
        <mxCell id="APtOG8G-SrrY5QG8LEJ8-3" value="&lt;font style=&quot;font-size: 14px;&quot;&gt;Webview&lt;/font&gt;&lt;div&gt;&lt;font style=&quot;font-size: 14px;&quot;&gt;&amp;lt;&amp;lt; onPageFinished &amp;gt;&amp;gt;&lt;/font&gt;&lt;/div&gt;" style="whiteSpace=wrap;html=1;align=center;" vertex="1" parent="1">
          <mxGeometry x="-830" y="155" width="160" height="60" as="geometry" />
        </mxCell>
        <mxCell id="APtOG8G-SrrY5QG8LEJ8-16" style="edgeStyle=orthogonalEdgeStyle;rounded=0;orthogonalLoop=1;jettySize=auto;html=1;exitX=0.5;exitY=1;exitDx=0;exitDy=0;entryX=0.5;entryY=0;entryDx=0;entryDy=0;strokeWidth=2;" edge="1" parent="1" source="APtOG8G-SrrY5QG8LEJ8-5" target="APtOG8G-SrrY5QG8LEJ8-3">
          <mxGeometry relative="1" as="geometry" />
        </mxCell>
        <mxCell id="APtOG8G-SrrY5QG8LEJ8-5" value="&lt;font style=&quot;font-size: 14px;&quot;&gt;handleSendIntrent&lt;/font&gt;" style="ellipse;whiteSpace=wrap;html=1;align=center;" vertex="1" parent="1">
          <mxGeometry x="-820" y="35" width="140" height="50" as="geometry" />
        </mxCell>
        <mxCell id="APtOG8G-SrrY5QG8LEJ8-9" value="&lt;font style=&quot;font-size: 14px;&quot;&gt;extractUrlData&lt;/font&gt;" style="ellipse;whiteSpace=wrap;html=1;align=center;" vertex="1" parent="1">
          <mxGeometry x="-820" y="275" width="140" height="50" as="geometry" />
        </mxCell>
        <mxCell id="APtOG8G-SrrY5QG8LEJ8-19" style="edgeStyle=orthogonalEdgeStyle;rounded=0;orthogonalLoop=1;jettySize=auto;html=1;entryX=0;entryY=0.5;entryDx=0;entryDy=0;exitX=0;exitY=0.5;exitDx=0;exitDy=0;curved=1;strokeWidth=2;" edge="1" parent="1" source="APtOG8G-SrrY5QG8LEJ8-10" target="APtOG8G-SrrY5QG8LEJ8-3">
          <mxGeometry relative="1" as="geometry">
            <Array as="points">
              <mxPoint x="-890" y="380" />
              <mxPoint x="-890" y="185" />
            </Array>
          </mxGeometry>
        </mxCell>
        <mxCell id="APtOG8G-SrrY5QG8LEJ8-10" value="&lt;font style=&quot;font-size: 14px;&quot;&gt;discoverBtn&lt;/font&gt;" style="ellipse;whiteSpace=wrap;html=1;align=center;" vertex="1" parent="1">
          <mxGeometry x="-820" y="355" width="140" height="50" as="geometry" />
        </mxCell>
        <mxCell id="APtOG8G-SrrY5QG8LEJ8-11" value="&lt;span style=&quot;font-size: 14px;&quot;&gt;JavascriptInterface&lt;/span&gt;" style="whiteSpace=wrap;html=1;align=center;" vertex="1" parent="1">
          <mxGeometry x="-570" y="155" width="160" height="60" as="geometry" />
        </mxCell>
        <mxCell id="APtOG8G-SrrY5QG8LEJ8-12" value="&lt;span style=&quot;font-size: 14px;&quot;&gt;Intent&lt;/span&gt;" style="whiteSpace=wrap;html=1;align=center;" vertex="1" parent="1">
          <mxGeometry x="-1050" y="165" width="100" height="60" as="geometry" />
        </mxCell>
        <mxCell id="APtOG8G-SrrY5QG8LEJ8-14" style="edgeStyle=orthogonalEdgeStyle;rounded=0;orthogonalLoop=1;jettySize=auto;html=1;entryX=0;entryY=0.5;entryDx=0;entryDy=0;strokeWidth=2;" edge="1" parent="1" target="APtOG8G-SrrY5QG8LEJ8-12">
          <mxGeometry relative="1" as="geometry">
            <mxPoint x="-1150" y="195" as="sourcePoint" />
          </mxGeometry>
        </mxCell>
        <mxCell id="APtOG8G-SrrY5QG8LEJ8-21" value="&lt;font style=&quot;font-size: 14px;&quot;&gt;url&lt;/font&gt;" style="text;html=1;align=center;verticalAlign=middle;whiteSpace=wrap;rounded=0;" vertex="1" parent="1">
          <mxGeometry x="-1140" y="165" width="60" height="30" as="geometry" />
        </mxCell>
        <mxCell id="APtOG8G-SrrY5QG8LEJ8-22" value="&lt;font style=&quot;font-size: 14px;&quot;&gt;url&lt;/font&gt;" style="text;html=1;align=center;verticalAlign=middle;whiteSpace=wrap;rounded=0;" vertex="1" parent="1">
          <mxGeometry x="-940" y="95" width="60" height="30" as="geometry" />
        </mxCell>
        <mxCell id="APtOG8G-SrrY5QG8LEJ8-23" value="&lt;font style=&quot;font-size: 14px;&quot;&gt;webview.load(url)&lt;/font&gt;" style="text;html=1;align=center;verticalAlign=middle;whiteSpace=wrap;rounded=0;" vertex="1" parent="1">
          <mxGeometry x="-750" y="95" width="140" height="30" as="geometry" />
        </mxCell>
        <mxCell id="APtOG8G-SrrY5QG8LEJ8-24" value="&lt;font style=&quot;font-size: 14px;&quot;&gt;getData&lt;/font&gt;" style="text;html=1;align=center;verticalAlign=middle;whiteSpace=wrap;rounded=0;" vertex="1" parent="1">
          <mxGeometry x="-650" y="155" width="60" height="30" as="geometry" />
        </mxCell>
        <mxCell id="APtOG8G-SrrY5QG8LEJ8-25" value="&lt;font style=&quot;font-size: 14px;&quot;&gt;startParsing()&lt;/font&gt;&lt;div&gt;&lt;font style=&quot;font-size: 14px;&quot;&gt;&amp;lt;&amp;lt; coroutineScope &amp;gt;&amp;gt;&lt;/font&gt;&lt;/div&gt;" style="text;html=1;align=center;verticalAlign=middle;whiteSpace=wrap;rounded=0;" vertex="1" parent="1">
          <mxGeometry x="-760" y="215" width="170" height="50" as="geometry" />
        </mxCell>
        <mxCell id="APtOG8G-SrrY5QG8LEJ8-26" value="&lt;font style=&quot;font-size: 14px;&quot;&gt;inject js&lt;/font&gt;" style="text;html=1;align=center;verticalAlign=middle;whiteSpace=wrap;rounded=0;" vertex="1" parent="1">
          <mxGeometry x="-950" y="265" width="60" height="30" as="geometry" />
        </mxCell>
      </root>
    </mxGraphModel>
  </diagram>
</mxfile>
